<svg version="1" xmlns="http://www.w3.org/2000/svg" width="240" height="240" viewBox="0 0 180 180"><path d="M81.9 57.7c-.8.9-11.3 10.6-23.4 21.7-19.8 18.1-29.9 27.3-34.4 31.6-1.3 1.2-3.9 1.4-12.9 1.2L0 111.9v7.1h95v-3.5c0-3.2-.3-3.5-2.7-3.5h-2.8l.3-26.7c.1-14.6-.1-27-.5-27.3-1.9-1.8-6.1-1.9-7.4-.3zm.6 31.3v23H31.6l5.5-4.9c2.9-2.6 14.2-13 24.9-22.9 10.7-10 19.7-18.1 20-18.1.3-.1.5 10.2.5 22.9zM115 63.5V71h5.8c3.1 0 7.3.3 9.2.6 3.1.5 3.7.3 4.9-2 1.8-3.2 2.5-3.3 3.9-.1.8 1.7 2 2.5 3.7 2.5 3.1 0 3.1-.6-.1-5.3l-2.5-3.7 2-2.9c1.2-1.6 2.1-3.2 2.1-3.5 0-1.4-5-.4-5.9 1.1-1 1.7-1.2 1.7-2.5 0-.7-.9-2.5-1.7-4-1.7h-2.7l2 2.9c2.5 3.5 2.6 4.1.4 8-1.8 3.1-4 4.3-2.9 1.6.4-1.2-.4-1.5-3.9-1.5-2.5 0-4.5-.5-4.5-1 0-.6 1.8-1 4-1 3.3 0 4-.3 4-1.9 0-1.6-.8-2.1-4.2-2.4l-4.3-.4 4.3-.1c3.5-.2 4.2-.5 4.2-2.2 0-1.8-.7-2-6.5-2H115v7.5zm31 0c0 7.3.1 7.5 2.5 7.5 2 0 2.5-.5 2.5-2.5 0-1.8.5-2.5 2-2.5s2 .7 2 2.5c0 2.1.5 2.5 3 2.5h3V56h-3c-2.5 0-3 .4-3 2.5 0 1.8-.5 2.5-2 2.5s-2-.7-2-2.5c0-2-.5-2.5-2.5-2.5-2.4 0-2.5.2-2.5 7.5zm18.6-6c-.8.9-1.8 3.2-2.2 5.2-.6 3.3-.3 4 2.5 6.5 3.8 3.4 7.1 3.6 10.7.4 3.4-2.8 3.8-8.4.9-11.6-2.2-2.5-9.6-2.8-11.9-.5zM111 79.8c-7.3 2.9-11 8.4-11.5 17-.6 11 3.9 17.7 13.6 20.6 4.7 1.4 5.4 1.4 10.4-.5 8.1-3 12.5-9.5 12.5-18.4 0-7.1-4.1-14.9-9.2-17.6-3.8-2-12.1-2.6-15.8-1.1zm13.5 8.7c1.4 1.3 2.5 3 2.6 3.7.9 10.9.4 13.3-3.2 16.7-3 2.8-8.8 2.8-12.2 0-5.3-4.1-5.8-15.5-.9-20.4 3.5-3.5 10.3-3.5 13.7 0zm41.3-7.8c-.6.7-.7 1.3-.4 1.3.4 0 .2.9-.4 2-.6 1-1.2 3.2-1.4 4.7-.6 4.7-2.8 12.3-3.7 12.8-.9.6-2.9-5.7-2.9-9.2 0-1.2-.5-2.5-1-2.8-.6-.4-1-1.2-.8-1.8.1-.7-.2-2.7-.6-4.5-.8-3.2-.8-3.2-7.2-3.2H141v38h7.9l.3-12.8c.2-8.3.6-11.7 1.1-9.7.4 1.6 1.7 7.3 3 12.5l2.2 9.5 4.2.3c4.7.3 4.1 1.4 6.8-11.3.8-3.9 2.1-9.3 2.8-12 1.4-4.9 1.4-4.8 1.5 8 0 7.1.1 13.6.1 14.3.1.9 1.3 1.2 3.9 1l3.7-.3.3-18.7.2-18.6-6.1-.4c-4-.2-6.4.1-7.1.9z"/></svg>