<svg xmlns="http://www.w3.org/2000/svg" viewBox="0 0 463 463" width="512" height="512"><g fill="#D80027"><path d="M398.901 317.619a8.065 8.065 0 00-.35-.078L319 301.639v-37.662a63.466 63.466 0 0024-49.72v-60.41c7.883-3.694 14.935-7.818 20.987-12.337A7.502 7.502 0 00359.5 128h-.728C356.819 94.941 342.053 64.709 319 42.858V39.5c0-4.143-3.357-7.5-7.5-7.5a7.458 7.458 0 00-4.009 1.169c-13.18-9.836-28.37-17.214-44.954-21.362C260.874 5.04 254.772 0 247.5 0h-32c-7.272 0-13.373 5.04-15.037 11.807-16.584 4.149-31.774 11.526-44.954 21.362A7.458 7.458 0 00151.5 32a7.499 7.499 0 00-7.5 7.5v3.358C120.947 64.709 106.181 94.941 104.228 128h-.728a7.501 7.501 0 00-4.487 13.51c6.052 4.519 13.105 8.643 20.987 12.337v60.41a63.466 63.466 0 0024 49.72v37.662l-79.552 15.902c-.117.023-.233.05-.35.078A63.41 63.41 0 0016 379.224V439.5c0 12.958 10.542 23.5 23.5 23.5h384c12.958 0 23.5-10.542 23.5-23.5v-60.276a63.41 63.41 0 00-48.099-61.605zM360 448H103v-40.5c0-9.098 7.402-16.5 16.5-16.5h224c9.098 0 16.5 7.402 16.5 16.5V448zM197.868 294.426A70.432 70.432 0 00231.5 303h.006a70.425 70.425 0 0033.625-8.574L304 273.225V303.5c0 18.683-18.987 40.5-72.5 40.5S159 322.183 159 303.5v-30.275l38.868 21.201zM159 376v-38.879C173.931 350.965 199.242 359 231.5 359s57.569-8.035 72.5-21.879V376H159zm-15 0h-17v-55.667l17-3.398V376zm192 0h-17v-59.065l17 3.398V376zM231.5 160c-36.231 0-70.59-5.917-96.5-16.088V143h193v.912C302.09 154.083 267.731 160 231.5 160zM159 49.56c11.773-9.977 25.654-17.613 41-22.081V128h-41V49.56zm104-22.081c15.346 4.468 29.227 12.104 41 22.081V128h-41V27.479zM343.722 128H319V64.922c14.208 17.632 23.143 39.522 24.722 63.078zM215.5 15h32c.275 0 .5.225.5.5V128h-33V15.5c0-.275.225-.5.5-.5zM144 64.922V128h-24.722c1.579-23.556 10.514-45.446 24.722-63.078zm-9 149.335v-54.255c12.363 4.428 26.181 7.952 41 10.473V183.5c0 4.143 3.357 7.5 7.5 7.5s7.5-3.357 7.5-7.5v-10.859c12.981 1.548 26.566 2.359 40.5 2.359s27.519-.811 40.5-2.359V183.5c0 4.143 3.357 7.5 7.5 7.5s7.5-3.357 7.5-7.5v-13.025c14.819-2.521 28.637-6.044 41-10.473v54.255a48.476 48.476 0 01-25.276 42.578l-44.775 24.423A55.386 55.386 0 01231.5 288h-.006a55.372 55.372 0 01-26.441-6.742l-44.775-24.423A48.474 48.474 0 01135 214.257zM31 439.5v-60.276a48.428 48.428 0 0136.569-47.01L112 323.332v53.577c-13.759 3.374-24 15.806-24 30.591V448H39.5c-4.687 0-8.5-3.813-8.5-8.5zm401 0c0 4.687-3.813 8.5-8.5 8.5H375v-40.5c0-14.785-10.241-27.216-24-30.591v-53.577l44.431 8.882A48.428 48.428 0 01432 379.224V439.5z"/><path d="M195.28 245.48c8.891 6.05 22.092 9.52 36.22 9.52 14.129 0 27.33-3.47 36.22-9.52a7.499 7.499 0 001.98-10.42 7.5 7.5 0 00-10.42-1.98c-6.367 4.333-16.752 6.92-27.78 6.92-11.027 0-21.412-2.587-27.78-6.92a7.5 7.5 0 10-8.44 12.4z"/></g></svg>