<svg xmlns="http://www.w3.org/2000/svg" viewBox="0 0 397.401 397.401" width="512" height="512"><path d="M173.573 97.768l-21.88-22.12a7.28 7.28 0 10-10.32 10.2l21.88 22.12a7.28 7.28 0 0010.32-10.2zm185.512-20.975a7.28 7.28 0 00-11.112-.065l-22.12 21.88a7.28 7.28 0 1010.2 10.32l22.12-21.88a7.28 7.28 0 00.912-10.255zm-131.829-4.557a7.146 7.146 0 00-.163-.628l-8-30.08a7.241 7.241 0 10-14.001 3.64l8 30.08a7.241 7.241 0 0014.164-3.012zm99.477 154.892a101.162 101.162 0 00-4.24-4l1.2-2.16a84.05 84.05 0 004-8.44c17.039-42.555-3.646-90.866-46.201-107.905l-.239-.095c-38.472-15.335-82.362.024-102.88 36-50.15-14.006-102.159 15.294-116.166 65.445a94.234 94.234 0 00-3.474 25.635v3.76C23.916 237.837-2.308 268.063.161 302.88c2.333 32.907 29.584 58.483 62.572 58.728h208.2c43.498.075 78.821-35.125 78.897-78.623a78.763 78.763 0 00-23.097-55.857zm-101.44-109.08a68.359 68.359 0 0150.52 0c35.167 14.031 52.331 53.889 38.36 89.08a69.394 69.394 0 01-3.44 7.08v.64a78.84 78.84 0 00-66.16-6.08 94.154 94.154 0 00-23.84-42.76c8.089-15.018 26.11-21.643 42-15.44a7.24 7.24 0 005.32-13.44c-21.575-8.645-46.243-.591-58.56 19.12a94.49 94.49 0 00-17.56-10.44 68.403 68.403 0 0133.36-27.76zm60.835 227.241a64.28 64.28 0 01-15.115 1.76h-208c-26.885-.024-48.66-21.839-48.636-48.724a48.682 48.682 0 0114.236-34.356l-.08.04a48.52 48.52 0 0134.4-14.24h3.32a7.24 7.24 0 007.6-8.6 92.687 92.687 0 01-.4-4.52v-5.08c.593-44.046 36.78-79.272 80.827-78.679 38.703.521 71.445 28.754 77.653 66.959a7.24 7.24 0 0010.4 5.44 63.768 63.768 0 0113.92-5.04c34.529-8.25 69.208 13.054 77.458 47.583 8.25 34.528-13.054 69.207-47.583 77.457zm110.949-199.893a7.24 7.24 0 00-8.425-4.948l-30.08 8a7.24 7.24 0 00-5.2 8.8 7.24 7.24 0 008.84 5.2l30.08-8a7.238 7.238 0 004.785-9.052zm-5.104 70.772l-30-8.2a7.26 7.26 0 10-4 13.96l30 8.2a7.26 7.26 0 104-13.96zm-102.22-179.5a7.26 7.26 0 00-8.98 4.98l-8.2 30a7.24 7.24 0 005.12 9.08 7.24 7.24 0 009.04-5.08l8-30a7.261 7.261 0 00-4.98-8.98z" fill="#D80027"/></svg>