<svg xmlns="http://www.w3.org/2000/svg" viewBox="0 0 512.003 512.003" width="512" height="512"><path d="M435.398 466.527h.01-.01zm13.896-5.582l-24.393-60.715a7.488 7.488 0 0 0-13.896 5.583l22.546 56.116-43.009-13.504c-5.72-1.792-11.964.716-14.85 5.968l-21.711 39.505-57.726-143.683c5.469 1.206 10.948 1.404 16.371-.357 12.111-3.933 19.097-15.885 25.26-26.43 4.006-6.854 8.149-13.941 12.892-17.392 4.19-3.05 10.816-4.796 17.599-6.329l22.551 56.131a7.487 7.487 0 0 0 9.74 4.156 7.488 7.488 0 0 0 4.157-9.739l-21.718-54.057c8.345-2.407 16.022-5.926 21.113-12.921 7.316-10.052 6.065-23.074 4.855-35.666-.773-8.05-1.573-16.375.317-22.194 1.758-5.415 6.899-11.18 12.342-17.283 8.19-9.183 17.472-19.592 17.472-32.557s-9.282-23.374-17.472-32.557c-5.443-6.103-10.584-11.868-12.342-17.283-1.89-5.82-1.09-14.144-.317-22.194 1.21-12.592 2.461-25.614-4.855-35.666-7.391-10.156-20.237-12.986-32.659-15.721-7.835-1.726-15.937-3.51-20.782-7.036-4.743-3.451-8.886-10.539-12.892-17.393-6.164-10.545-13.15-22.497-25.261-26.43-11.622-3.771-23.5 1.39-34.987 6.384-7.529 3.273-15.314 6.657-21.636 6.657-6.322 0-14.107-3.384-21.636-6.657-11.486-4.994-23.363-10.155-34.988-6.384-12.111 3.933-19.096 15.885-25.26 26.43-4.006 6.854-8.149 13.941-12.892 17.393-4.845 3.526-12.947 5.311-20.783 7.036-12.422 2.736-25.267 5.565-32.659 15.721-7.316 10.053-6.065 23.074-4.855 35.667.773 8.05 1.573 16.375-.317 22.194-1.758 5.414-6.899 11.179-12.342 17.281-8.19 9.184-17.473 19.593-17.473 32.558s9.283 23.375 17.473 32.558c5.443 6.103 10.583 11.868 12.342 17.282 1.889 5.82 1.09 14.144.317 22.194-1.21 12.592-2.461 25.614 4.855 35.666 5.091 6.995 12.768 10.514 21.113 12.921l-66.19 164.747c-1.838 4.574-.9 9.665 2.448 13.284 3.349 3.62 8.352 4.952 13.054 3.473l45.901-14.412 23.172 42.164c2.248 4.089 6.427 6.547 11.041 6.547.261 0 .524-.008.787-.023 4.921-.297 9.12-3.324 10.959-7.898l64.574-160.725c7.442-3.235 15.113-6.536 21.357-6.536s13.915 3.301 21.357 6.536l64.574 160.726c1.838 4.575 6.038 7.602 10.959 7.898.264.016.526.023.787.023 4.614 0 8.794-2.458 11.041-6.547l23.172-42.164 45.902 14.412c4.703 1.478 9.705.147 13.053-3.473 3.348-3.62 4.286-8.71 2.448-13.285zm-291.273 32.953l-21.71-39.503c-2.26-4.114-6.579-6.545-11.093-6.545-1.251 0-2.517.186-3.759.576l-43.008 13.503 65.175-162.222c6.783 1.533 13.409 3.279 17.599 6.329 4.743 3.451 8.886 10.538 12.892 17.392 6.164 10.545 13.15 22.498 25.261 26.43 2.797.908 5.608 1.299 8.425 1.299 2.645 0 5.294-.35 7.942-.934l-57.724 143.675zm97.98-172.057c-9.436 0-18.673 4.016-27.606 7.899-9.341 4.061-18.162 7.895-24.392 5.873-6.685-2.17-11.674-10.705-16.957-19.742-4.784-8.185-9.731-16.648-17.009-21.945-7.377-5.368-17.034-7.496-26.373-9.552-10.142-2.235-19.722-4.344-23.772-9.909-3.974-5.461-3.043-15.157-2.057-25.421.919-9.573 1.87-19.472-.98-28.252-2.73-8.407-9.175-15.635-15.408-22.624-7.032-7.886-13.674-15.333-13.674-22.591s6.642-14.705 13.674-22.59c6.233-6.99 12.679-14.217 15.408-22.624 2.851-8.78 1.9-18.679.98-28.252-.986-10.264-1.918-19.961 2.057-25.422 4.05-5.564 13.63-7.674 23.772-9.909 9.339-2.056 18.996-4.184 26.373-9.552 7.278-5.297 12.225-13.76 17.009-21.945 5.282-9.036 10.271-17.572 16.956-19.742 6.231-2.028 15.052 1.813 24.393 5.873 8.933 3.883 18.17 7.899 27.606 7.899s18.673-4.016 27.606-7.899c9.341-4.061 18.165-7.894 24.392-5.873 6.685 2.17 11.675 10.706 16.957 19.742 4.784 8.185 9.731 16.648 17.009 21.945 7.377 5.368 17.034 7.496 26.372 9.552 10.142 2.235 19.722 4.344 23.772 9.909 3.974 5.461 3.043 15.157 2.057 25.421-.919 9.573-1.87 19.472.98 28.252 2.73 8.408 9.175 15.636 15.409 22.625 7.031 7.885 13.673 15.332 13.673 22.59s-6.641 14.706-13.673 22.59c-6.234 6.99-12.679 14.217-15.409 22.625-2.851 8.78-1.9 18.678-.98 28.252.986 10.265 1.917 19.961-2.057 25.421-4.05 5.564-13.63 7.674-23.772 9.909-9.339 2.056-18.996 4.184-26.373 9.552-7.277 5.297-12.224 13.76-17.008 21.945-5.282 9.036-10.271 17.572-16.956 19.742-6.232 2.026-15.052-1.813-24.393-5.873-8.933-3.883-18.17-7.899-27.606-7.899z" fill="#D80027"/><path d="M256.001 64.585c-2.668 0-5.365.095-8.015.286a7.486 7.486 0 0 0-6.935 8.002c.295 4.125 3.871 7.246 8.002 6.935a97.982 97.982 0 0 1 6.949-.247c52.944 0 96.017 43.073 96.017 96.017 0 52.944-43.074 96.017-96.018 96.017s-96.017-43.073-96.017-96.017c0-32.39 16.169-62.384 43.252-80.232a7.488 7.488 0 0 0-8.242-12.505c-31.3 20.629-49.986 55.298-49.986 92.737 0 61.202 49.791 110.993 110.993 110.993s110.993-49.791 110.993-110.993S317.203 64.585 256.001 64.585z" fill="#D80027"/></svg>